<svg style="background-color: rgb(255, 255, 255);" viewBox="-0.5 -0.5 891 916" height="916px" width="891px" version="1.1" xmlns:xlink="http://www.w3.org/1999/xlink" xmlns="http://www.w3.org/2000/svg"><defs></defs><g><path stroke-miterlimit="10" stroke="rgb(0, 0, 0)" fill="none" d="M 588 180 L 588 233.63"></path><path stroke-miterlimit="10" stroke="rgb(0, 0, 0)" fill="rgb(0, 0, 0)" d="M 588 238.88 L 584.5 231.88 L 588 233.63 L 591.5 231.88 Z"></path><g transform="translate(-0.5 -0.5)"><switch><text text-anchor="middle" font-size="11px" font-family="Helvetica" fill="rgb(0, 0, 0)" y="222" x="591">No</text></switch></g><path stroke-miterlimit="10" stroke="rgb(0, 0, 0)" fill="none" d="M 588 270 L 588 283.63"></path><path stroke-miterlimit="10" stroke="rgb(0, 0, 0)" fill="rgb(0, 0, 0)" d="M 588 288.88 L 584.5 281.88 L 588 283.63 L 591.5 281.88 Z"></path><rect transform="rotate(90,588,255)" stroke="#9673a6" fill="#e1d5e7" ry="4.5" rx="4.5" height="120" width="30" y="195" x="573"></rect><g transform="translate(-0.5 -0.5)"><switch><text text-anchor="middle" font-size="12px" font-family="Helvetica" fill="rgb(0, 0, 0)" y="259" x="588">Send "?"</text></switch></g><path stroke-miterlimit="10" stroke="rgb(0, 0, 0)" fill="none" d="M 588 370 L 588 400 L 588 448.63"></path><path stroke-miterlimit="10" stroke="rgb(0, 0, 0)" fill="rgb(0, 0, 0)" d="M 588 453.88 L 584.5 446.88 L 588 448.63 L 591.5 446.88 Z"></path><g transform="translate(-0.5 -0.5)"><switch><text text-anchor="middle" font-size="11px" font-family="Helvetica" fill="rgb(0, 0, 0)" y="397" x="588">No</text></switch></g><path stroke-miterlimit="10" stroke="rgb(0, 0, 0)" fill="none" d="M 548 330 L 138 330 L 138 343.63"></path><path stroke-miterlimit="10" stroke="rgb(0, 0, 0)" fill="rgb(0, 0, 0)" d="M 138 348.88 L 134.5 341.88 L 138 343.63 L 141.5 341.88 Z"></path><g transform="translate(-0.5 -0.5)"><switch><text text-anchor="middle" font-size="11px" font-family="Helvetica" fill="rgb(0, 0, 0)" y="333" x="333">Yes</text></switch></g><path stroke-miterlimit="10" stroke="#82b366" fill="#d5e8d4" d="M 588 290 L 628 330 L 588 370 L 548 330 Z"></path><g transform="translate(-0.5 -0.5)"><switch><text text-anchor="middle" font-size="12px" font-family="Helvetica" fill="rgb(0, 0, 0)" y="334" x="588">Status...</text></switch></g><path stroke-miterlimit="10" stroke="rgb(0, 0, 0)" fill="none" d="M 588 525 L 588 603.63"></path><path stroke-miterlimit="10" stroke="rgb(0, 0, 0)" fill="rgb(0, 0, 0)" d="M 588 608.88 L 584.5 601.88 L 588 603.63 L 591.5 601.88 Z"></path><rect stroke="#9673a6" fill="#e1d5e7" ry="10.5" rx="10.5" height="70" width="120" y="455" x="528"></rect><g transform="translate(-0.5 -0.5)"><switch><text text-anchor="middle" font-size="12px" font-family="Helvetica" fill="rgb(0, 0, 0)" y="494" x="588">Reboot with...</text></switch></g><path stroke-miterlimit="10" stroke="rgb(0, 0, 0)" fill="none" d="M 188 390 L 227.63 390"></path><path stroke-miterlimit="10" stroke="rgb(0, 0, 0)" fill="rgb(0, 0, 0)" d="M 232.88 390 L 225.88 393.5 L 227.63 390 L 225.88 386.5 Z"></path><g transform="translate(-0.5 -0.5)"><switch><text text-anchor="middle" font-size="11px" font-family="Helvetica" fill="rgb(0, 0, 0)" y="393" x="211">Yes</text></switch></g><path stroke-miterlimit="10" stroke="rgb(0, 0, 0)" fill="none" d="M 138 430 L 138 600 L 227.63 600"></path><path stroke-miterlimit="10" stroke="rgb(0, 0, 0)" fill="rgb(0, 0, 0)" d="M 232.88 600 L 225.88 603.5 L 227.63 600 L 225.88 596.5 Z"></path><g transform="translate(-0.5 -0.5)"><switch><text text-anchor="middle" font-size="11px" font-family="Helvetica" fill="rgb(0, 0, 0)" y="453" x="138">No</text></switch></g><path stroke-miterlimit="10" stroke="#82b366" fill="#d5e8d4" d="M 138 350 L 188 390 L 138 430 L 88 390 Z"></path><g transform="translate(-0.5 -0.5)"><switch><text text-anchor="middle" font-size="12px" font-family="Helvetica" fill="rgb(0, 0, 0)" y="394" x="138">Is State...</text></switch></g><path stroke-miterlimit="10" stroke="rgb(0, 0, 0)" fill="none" d="M 294 420 L 294 440 L 294 425 L 294 438.63"></path><path stroke-miterlimit="10" stroke="rgb(0, 0, 0)" fill="rgb(0, 0, 0)" d="M 294 443.88 L 290.5 436.88 L 294 438.63 L 297.5 436.88 Z"></path><rect stroke="#9673a6" fill="#e1d5e7" ry="9" rx="9" height="60" width="120" y="360" x="234"></rect><g transform="translate(-0.5 -0.5)"><switch><text text-anchor="middle" font-size="12px" font-family="Helvetica" fill="rgb(0, 0, 0)" y="394" x="294">Send a blank line</text></switch></g><path stroke-miterlimit="10" stroke="rgb(0, 0, 0)" fill="none" d="M 344 490 L 377.63 490"></path><path stroke-miterlimit="10" stroke="rgb(0, 0, 0)" fill="rgb(0, 0, 0)" d="M 382.88 490 L 375.88 493.5 L 377.63 490 L 375.88 486.5 Z"></path><g transform="translate(-0.5 -0.5)"><switch><text text-anchor="middle" font-size="11px" font-family="Helvetica" fill="rgb(0, 0, 0)" y="493" x="364">No</text></switch></g><path stroke-miterlimit="10" stroke="rgb(0, 0, 0)" fill="none" d="M 294 535 L 294 555 L 294 550 L 294 563.63"></path><path stroke-miterlimit="10" stroke="rgb(0, 0, 0)" fill="rgb(0, 0, 0)" d="M 294 568.88 L 290.5 561.88 L 294 563.63 L 297.5 561.88 Z"></path><g transform="translate(-0.5 -0.5)"><switch><text text-anchor="middle" font-size="11px" font-family="Helvetica" fill="rgb(0, 0, 0)" y="555" x="294">Yes</text></switch></g><path stroke-miterlimit="10" stroke="#82b366" fill="#d5e8d4" d="M 294 445 L 344 490 L 294 535 L 244 490 Z"></path><g transform="translate(-0.5 -0.5)"><switch><text text-anchor="middle" font-size="12px" font-family="Helvetica" fill="rgb(0, 0, 0)" y="494" x="294">Did you receive...</text></switch></g><path stroke-miterlimit="10" stroke="rgb(0, 0, 0)" fill="none" d="M 444 520 L 444 563.63"></path><path stroke-miterlimit="10" stroke="rgb(0, 0, 0)" fill="rgb(0, 0, 0)" d="M 444 568.88 L 440.5 561.88 L 444 563.63 L 447.5 561.88 Z"></path><rect stroke="#d6b656" fill="#fff2cc" ry="9" rx="9" height="60" width="120" y="460" x="384"></rect><g transform="translate(-0.5 -0.5)"><switch><text text-anchor="middle" font-size="12px" font-family="Helvetica" fill="rgb(0, 0, 0)" y="494" x="444">System is alarm lock...</text></switch></g><path stroke-miterlimit="10" stroke="rgb(0, 0, 0)" fill="none" d="M 294 630 L 294 683.63"></path><path stroke-miterlimit="10" stroke="rgb(0, 0, 0)" fill="rgb(0, 0, 0)" d="M 294 688.88 L 290.5 681.88 L 294 683.63 L 297.5 681.88 Z"></path><rect stroke="#9673a6" fill="#e1d5e7" ry="9" rx="9" height="60" width="120" y="570" x="234"></rect><g transform="translate(-0.5 -0.5)"><switch><text text-anchor="middle" font-size="12px" font-family="Helvetica" fill="rgb(0, 0, 0)" y="604" x="294">Send $I to get...</text></switch></g><path stroke-miterlimit="10" stroke="rgb(0, 0, 0)" fill="none" d="M 444 630 L 444 710 L 444 696.37"></path><path stroke-miterlimit="10" stroke="rgb(0, 0, 0)" fill="rgb(0, 0, 0)" d="M 444 691.12 L 447.5 698.12 L 444 696.37 L 440.5 698.12 Z"></path><rect stroke="#9673a6" fill="#e1d5e7" ry="9" rx="9" height="60" width="120" y="570" x="384"></rect><g transform="translate(-0.5 -0.5)"><switch><text text-anchor="middle" font-size="12px" font-family="Helvetica" fill="rgb(0, 0, 0)" y="604" x="444">Send CRTL+X...</text></switch></g><rect stroke="#b85450" fill="#f8cecc" ry="6" rx="6" height="40" width="120" y="0" x="528"></rect><g transform="translate(-0.5 -0.5)"><switch><text text-anchor="middle" font-size="12px" font-family="Helvetica" fill="rgb(0, 0, 0)" y="24" x="588">Open Serial connecti...</text></switch></g><path stroke-miterlimit="10" stroke="rgb(0, 0, 0)" fill="none" d="M 294 780 L 294 858.63"></path><path stroke-miterlimit="10" stroke="rgb(0, 0, 0)" fill="rgb(0, 0, 0)" d="M 294 863.88 L 290.5 856.88 L 294 858.63 L 297.5 856.88 Z"></path><rect stroke="#9673a6" fill="#e1d5e7" ry="13.5" rx="13.5" height="90" width="120" y="690" x="234"></rect><g transform="translate(-0.5 -0.5)"><switch><text text-anchor="middle" font-size="12px" font-family="Helvetica" fill="rgb(0, 0, 0)" y="739" x="294">Decode version...</text></switch></g><ellipse stroke="#b85450" fill="#f8cecc" ry="25" rx="60" cy="890" cx="294"></ellipse><g transform="translate(-0.5 -0.5)"><switch><text text-anchor="middle" font-size="12px" font-family="Helvetica" fill="rgb(0, 0, 0)" y="894" x="294">Connected&nbsp;</text></switch></g><path stroke-miterlimit="10" stroke="rgb(0, 0, 0)" fill="none" d="M 588 700 L 588 863.63"></path><path stroke-miterlimit="10" stroke="rgb(0, 0, 0)" fill="rgb(0, 0, 0)" d="M 588 868.88 L 584.5 861.88 L 588 863.63 L 591.5 861.88 Z"></path><g transform="translate(-0.5 -0.5)"><switch><text text-anchor="middle" font-size="11px" font-family="Helvetica" fill="rgb(0, 0, 0)" y="788" x="588">No</text></switch></g><path stroke-miterlimit="10" stroke="#82b366" fill="#d5e8d4" d="M 588 610 L 638 655 L 588 700 L 538 655 Z"></path><g transform="translate(-0.5 -0.5)"><switch><text text-anchor="middle" font-size="12px" font-family="Helvetica" fill="rgb(0, 0, 0)" y="659" x="588">Did you...</text></switch></g><ellipse stroke="#b85450" fill="#f8cecc" ry="20" rx="45" cy="890" cx="588"></ellipse><g transform="translate(-0.5 -0.5)"><switch><text text-anchor="middle" font-size="12px" font-family="Helvetica" fill="rgb(0, 0, 0)" y="894" x="588">Cannot...</text></switch></g><rect stroke="#9673a6" fill="#e1d5e7" ry="13.5" rx="13.5" height="90" width="120" y="690" x="384"></rect><g transform="translate(-0.5 -0.5)"><switch><text text-anchor="middle" font-size="12px" font-family="Helvetica" fill="rgb(0, 0, 0)" y="739" x="444">Decode version...</text></switch></g><path stroke-miterlimit="10" stroke="rgb(0, 0, 0)" fill="none" d="M 538 655 L 468 655 L 468 683.63"></path><path stroke-miterlimit="10" stroke="rgb(0, 0, 0)" fill="rgb(0, 0, 0)" d="M 468 688.88 L 464.5 681.88 L 468 683.63 L 471.5 681.88 Z"></path><g transform="translate(-0.5 -0.5)"><switch><text text-anchor="middle" font-size="11px" font-family="Helvetica" fill="rgb(0, 0, 0)" y="659" x="505">Yes</text></switch></g><path stroke-miterlimit="10" stroke="rgb(0, 0, 0)" fill="none" d="M 444 860 L 444 890 L 360.37 890"></path><path stroke-miterlimit="10" stroke="rgb(0, 0, 0)" fill="rgb(0, 0, 0)" d="M 355.12 890 L 362.12 886.5 L 360.37 890 L 362.12 893.5 Z"></path><rect stroke="#9673a6" fill="#e1d5e7" ry="9" rx="9" height="60" width="120" y="800" x="384"></rect><g transform="translate(-0.5 -0.5)"><switch><text text-anchor="middle" font-size="12px" font-family="Helvetica" fill="rgb(0, 0, 0)" y="834" x="444">Check for...</text></switch></g><path stroke-miterlimit="10" stroke="rgb(0, 0, 0)" fill="none" d="M 444 780 L 444 793.63"></path><path stroke-miterlimit="10" stroke="rgb(0, 0, 0)" fill="rgb(0, 0, 0)" d="M 444 798.88 L 440.5 791.88 L 444 793.63 L 447.5 791.88 Z"></path><path opacity="0.25" transform="translate(2,3)" stroke-miterlimit="10" stroke="#000000" fill="#000000" d="M 0 220 L 0 170 Q 0 160 10 160 L 266 160 Q 276 160 276 170 L 276 270 Q 276 280 267.7 280 L 263.55 280 Q 259.4 280 261.44 289.79 L 267.72 320 L 252.75 289 Q 248.4 280 238.4 280 L 10 280 Q 0 280 0 270 Z"></path><path stroke-miterlimit="10" stroke="rgb(0, 0, 0)" fill="rgb(255, 255, 255)" d="M 0 220 L 0 170 Q 0 160 10 160 L 266 160 Q 276 160 276 170 L 276 270 Q 276 280 267.7 280 L 263.55 280 Q 259.4 280 261.44 289.79 L 267.72 320 L 252.75 289 Q 248.4 280 238.4 280 L 10 280 Q 0 280 0 270 Z"></path><g transform="translate(-0.5 -0.5)"><switch><text text-anchor="middle" font-size="12px" font-family="Helvetica" fill="rgb(0, 0, 0)" y="224" x="138">In Alarm state, there are two possibilities -...</text></switch></g><path opacity="0.25" transform="translate(2,3)" stroke-miterlimit="10" stroke="#000000" fill="#000000" d="M 38 670 L 38 650 Q 38 640 48 640 L 198 640 Q 208 640 208 650 L 208 690 Q 208 700 198 700 L 181.9 700 Q 171.9 700 177.9 708 L 194.4 730 L 160.07 705.77 Q 151.9 700 141.9 700 L 48 700 Q 38 700 38 690 Z"></path><path stroke-miterlimit="10" stroke="rgb(0, 0, 0)" fill="rgb(255, 255, 255)" d="M 38 670 L 38 650 Q 38 640 48 640 L 198 640 Q 208 640 208 650 L 208 690 Q 208 700 198 700 L 181.9 700 Q 171.9 700 177.9 708 L 194.4 730 L 160.07 705.77 Q 151.9 700 141.9 700 L 48 700 Q 38 700 38 690 Z"></path><g transform="translate(-0.5 -0.5)"><switch><text text-anchor="middle" font-size="12px" font-family="Helvetica" fill="rgb(0, 0, 0)" y="674" x="123">This flow chart applies to b...</text></switch></g><path opacity="0.25" transform="translate(2,3)" stroke-miterlimit="10" stroke="#000000" fill="#000000" d="M 668 70 L 668 35 Q 668 25 678 25 L 878 25 Q 888 25 888 35 L 888 105 Q 888 115 878 115 L 737.6 115 Q 727.6 115 720.67 122.21 L 698.8 145 L 704.79 124.6 Q 707.6 115 697.6 115 L 678 115 Q 668 115 668 105 Z"></path><path stroke-miterlimit="10" stroke="rgb(0, 0, 0)" fill="rgb(255, 255, 255)" d="M 668 70 L 668 35 Q 668 25 678 25 L 878 25 Q 888 25 888 35 L 888 105 Q 888 115 878 115 L 737.6 115 Q 727.6 115 720.67 122.21 L 698.8 145 L 704.79 124.6 Q 707.6 115 697.6 115 L 678 115 Q 668 115 668 105 Z"></path><g transform="translate(-0.5 -0.5)"><switch><text text-anchor="middle" font-size="12px" font-family="Helvetica" fill="rgb(0, 0, 0)" y="74" x="778">Many Grbl controllers, especially th...</text></switch></g><path opacity="0.25" transform="translate(2,3)" stroke-miterlimit="10" stroke="#000000" fill="#000000" d="M 288 140 L 288 80 Q 288 70 298 70 L 498 70 Q 508 70 508 80 L 508 200 Q 508 210 498 210 L 488.2 210 Q 478.4 210 484.35 218.04 L 508 250 L 465.24 216.2 Q 457.4 210 447.4 210 L 298 210 Q 288 210 288 200 Z"></path><path stroke-miterlimit="10" stroke="rgb(0, 0, 0)" fill="rgb(255, 255, 255)" d="M 288 140 L 288 80 Q 288 70 298 70 L 498 70 Q 508 70 508 80 L 508 200 Q 508 210 498 210 L 488.2 210 Q 478.4 210 484.35 218.04 L 508 250 L 465.24 216.2 Q 457.4 210 447.4 210 L 298 210 Q 288 210 288 200 Z"></path><g transform="translate(-0.5 -0.5)"><switch><text text-anchor="middle" font-size="12px" font-family="Helvetica" fill="rgb(0, 0, 0)" y="144" x="398">This path lets you get control of a...</text></switch></g><path stroke-miterlimit="10" stroke="#82b366" fill="#d5e8d4" d="M 588 120 L 650.5 160 L 588 200 L 525.5 160 Z"></path><g transform="translate(-0.5 -0.5)"><switch><text text-anchor="middle" font-size="12px" font-family="Helvetica" fill="rgb(0, 0, 0)" y="164" x="588">Did you...</text></switch></g><path stroke-miterlimit="10" stroke="rgb(0, 0, 0)" fill="none" d="M 588 100 L 588 113.63"></path><path stroke-miterlimit="10" stroke="rgb(0, 0, 0)" fill="rgb(0, 0, 0)" d="M 588 118.88 L 584.5 111.88 L 588 113.63 L 591.5 111.88 Z"></path><rect transform="rotate(90,588,85)" stroke="#9673a6" fill="#e1d5e7" ry="4.5" rx="4.5" height="120" width="30" y="25" x="573"></rect><g transform="translate(-0.5 -0.5)"><switch><text text-anchor="middle" font-size="12px" font-family="Helvetica" fill="rgb(0, 0, 0)" y="89" x="588">Wait</text></switch></g><path stroke-miterlimit="10" stroke="rgb(0, 0, 0)" fill="none" d="M 588 40 L 588 63.63"></path><path stroke-miterlimit="10" stroke="rgb(0, 0, 0)" fill="rgb(0, 0, 0)" d="M 588 68.88 L 584.5 61.88 L 588 63.63 L 591.5 61.88 Z"></path><path stroke-miterlimit="10" stroke="rgb(0, 0, 0)" fill="none" d="M 650.5 160 L 688 160 L 708 160 L 708 570 L 618.32 629"></path><path stroke-miterlimit="10" stroke="rgb(0, 0, 0)" fill="rgb(0, 0, 0)" d="M 613.93 631.89 L 617.86 625.11 L 618.32 629 L 621.71 630.96 Z"></path><g transform="translate(-0.5 -0.5)"><switch><text text-anchor="middle" font-size="11px" font-family="Helvetica" fill="rgb(0, 0, 0)" y="163" x="679">Yes</text></switch></g><rect stroke="none" fill="none" height="70" width="260" y="20" x="16"></rect><g transform="translate(-0.5 -0.5)"><switch><text text-anchor="middle" font-size="16px" font-family="Helvetica" fill="rgb(0, 0, 0)" y="60" x="146">Getting control of Grbl or Fluid...</text></switch></g></g><switch><g></g><a xlink:href="https://www.diagrams.net/doc/faq/svg-export-text-problems" transform="translate(0,-5)"><text y="100%" x="50%" font-size="10px" text-anchor="middle">Text is not SVG - cannot display</text></a></switch></svg>